*
%LPD*%
%LNVIPer01-buck.GG1*%
%FSLAX24Y24*%
%MOIN*%
%AD*%
%ADD10C,0.009843*%
%ADD11C,0.005906*%
%ADD17C,0.000394*%
G54D10*
%SRX1Y1I0.0J0.0*%
G1X91720Y87441D2*
G1X91921Y87441D1*
G1X91720Y75295D2*
G1X91921Y75295D1*
G1X91823Y87441D2*
G1X92020Y86839D1*
G1X91622Y86839D2*
G1X91823Y87441D1*
G1X91823Y75295D2*
G1X92020Y75894D1*
G1X91622Y75894D2*
G1X91823Y75295D1*
G1X91823Y84224D2*
G1X91823Y87441D1*
G1X91823Y75295D2*
G1X91823Y78508D1*
G1X105472Y73618D2*
G1X105472Y73819D1*
G1X93732Y73618D2*
G1X93732Y73819D1*
G1X104874Y73520D2*
G1X105472Y73720D1*
G1X104874Y73917D2*
G1X105472Y73720D1*
G1X93732Y73720D2*
G1X94331Y73520D1*
G1X93732Y73720D2*
G1X94331Y73917D1*
G1X102760Y73720D2*
G1X105472Y73720D1*
G1X93732Y73720D2*
G1X96441Y73720D1*
G1X91681Y78606D2*
G54D11*
G1X91583Y78709D1*
G1X91583Y78909D1*
G1X91681Y79008D1*
G1X91780Y79008D1*
G1X91882Y78909D1*
G1X91882Y78807D1*
G1X91882Y78909D1*
G1X91980Y79008D1*
G1X92083Y79008D1*
G1X92181Y78909D1*
G1X92181Y78709D1*
G1X92083Y78606D1*
G1X91681Y79209D2*
G1X91583Y79307D1*
G1X91583Y79508D1*
G1X91681Y79606D1*
G1X92083Y79606D1*
G1X92181Y79508D1*
G1X92181Y79307D1*
G1X92083Y79209D1*
G1X91681Y79209D1*
G1X92181Y79807D2*
G1X92083Y79807D1*
G1X92083Y79906D1*
G1X92181Y79906D1*
G1X92181Y79807D1*
G1X91681Y80307D2*
G1X91583Y80406D1*
G1X91583Y80606D1*
G1X91681Y80709D1*
G1X91780Y80709D1*
G1X91882Y80606D1*
G1X91980Y80709D1*
G1X92083Y80709D1*
G1X92181Y80606D1*
G1X92181Y80406D1*
G1X92083Y80307D1*
G1X91980Y80307D1*
G1X91882Y80406D1*
G1X91780Y80307D1*
G1X91681Y80307D1*
G1X91882Y80406D2*
G1X91882Y80606D1*
G1X91583Y81307D2*
G1X91583Y80906D1*
G1X91882Y80906D1*
G1X91780Y81106D1*
G1X91780Y81209D1*
G1X91882Y81307D1*
G1X92083Y81307D1*
G1X92181Y81209D1*
G1X92181Y81008D1*
G1X92083Y80906D1*
G1X92181Y82307D2*
G1X91980Y82106D1*
G1X91780Y82106D1*
G1X91583Y82307D1*
G1X92181Y82606D2*
G1X91780Y82606D1*
G1X91780Y82705D1*
G1X91882Y82807D1*
G1X92181Y82807D1*
G1X91882Y82807D1*
G1X91780Y82906D1*
G1X91882Y83008D1*
G1X92181Y83008D1*
G1X92181Y83205D2*
G1X91780Y83205D1*
G1X91780Y83307D1*
G1X91882Y83406D1*
G1X92181Y83406D1*
G1X91882Y83406D1*
G1X91780Y83508D1*
G1X91882Y83606D1*
G1X92181Y83606D1*
G1X92181Y83807D2*
G1X91980Y84008D1*
G1X91780Y84008D1*
G1X91583Y83807D1*
G1X96941Y73358D2*
G1X96543Y73358D1*
G1X96941Y73760D1*
G1X96941Y73858D1*
G1X96843Y73961D1*
G1X96642Y73961D1*
G1X96543Y73858D1*
G1X97142Y73461D2*
G1X97244Y73358D1*
G1X97441Y73358D1*
G1X97543Y73461D1*
G1X97543Y73858D1*
G1X97441Y73961D1*
G1X97244Y73961D1*
G1X97142Y73858D1*
G1X97142Y73760D1*
G1X97244Y73657D1*
G1X97543Y73657D1*
G1X97744Y73358D2*
G1X97744Y73461D1*
G1X97843Y73461D1*
G1X97843Y73358D1*
G1X97744Y73358D1*
G1X98240Y73858D2*
G1X98343Y73961D1*
G1X98543Y73961D1*
G1X98642Y73858D1*
G1X98642Y73760D1*
G1X98543Y73657D1*
G1X98642Y73559D1*
G1X98642Y73461D1*
G1X98543Y73358D1*
G1X98343Y73358D1*
G1X98240Y73461D1*
G1X98240Y73559D1*
G1X98343Y73657D1*
G1X98240Y73760D1*
G1X98240Y73858D1*
G1X98343Y73657D2*
G1X98543Y73657D1*
G1X99240Y73358D2*
G1X98843Y73358D1*
G1X99240Y73760D1*
G1X99240Y73858D1*
G1X99142Y73961D1*
G1X98941Y73961D1*
G1X98843Y73858D1*
G1X99843Y73961D2*
G1X99441Y73961D1*
G1X99441Y73657D1*
G1X99642Y73760D1*
G1X99740Y73760D1*
G1X99843Y73657D1*
G1X99843Y73461D1*
G1X99740Y73358D1*
G1X99543Y73358D1*
G1X99441Y73461D1*
G1X100843Y73358D2*
G1X100642Y73559D1*
G1X100642Y73760D1*
G1X100843Y73961D1*
G1X101142Y73358D2*
G1X101142Y73760D1*
G1X101240Y73760D1*
G1X101343Y73657D1*
G1X101343Y73358D1*
G1X101343Y73657D1*
G1X101441Y73760D1*
G1X101539Y73657D1*
G1X101539Y73358D1*
G1X101740Y73358D2*
G1X101740Y73760D1*
G1X101843Y73760D1*
G1X101941Y73657D1*
G1X101941Y73358D1*
G1X101941Y73657D1*
G1X102039Y73760D1*
G1X102142Y73657D1*
G1X102142Y73358D1*
G1X102343Y73358D2*
G1X102539Y73559D1*
G1X102539Y73760D1*
G1X102343Y73961D1*
G1X104185Y80866D2*
G54D17*
G1X104539Y80866D1*
G1X104362Y80689D2*
G1X104362Y81043D1*
G1X102217Y80866D2*
G1X102571Y80866D1*
G1X102394Y80689D2*
G1X102394Y81043D1*
G1X99913Y85728D2*
G1X100386Y85728D1*
G1X100150Y85492D2*
G1X100150Y85965D1*
G1X101882Y85728D2*
G1X102354Y85728D1*
G1X102118Y85492D2*
G1X102118Y85965D1*
G1X97421Y85736D2*
G1X97894Y85736D1*
G1X97657Y85500D2*
G1X97657Y85972D1*
G1X95453Y85736D2*
G1X95925Y85736D1*
G1X95689Y85500D2*
G1X95689Y85972D1*
G1X98043Y82579D2*
G1X98319Y82579D1*
G1X98181Y82441D2*
G1X98181Y82717D1*
G1X98043Y81201D2*
G1X98319Y81201D1*
G1X98181Y81063D2*
G1X98181Y81339D1*
G1X95610Y79035D2*
G1X95886Y79035D1*
G1X95748Y78898D2*
G1X95748Y79173D1*
G1X95610Y80413D2*
G1X95886Y80413D1*
G1X95748Y80276D2*
G1X95748Y80551D1*
G1X100492Y82953D2*
G1X100846Y82953D1*
G1X100669Y82776D2*
G1X100669Y83130D1*
G1X101280Y82953D2*
G1X101634Y82953D1*
G1X101457Y82776D2*
G1X101457Y83130D1*
M2*
